# File created by Blade
# Date/Time:  Wed Jan 21 16:33:30 2015
# Frame Rate: 120.000 fps
#------------------------------------------------------
:FULLY-SPECIFIED
:DEGREES
1509
root 20.149972 35.760038 -23.910385 103.821478 95.346317 103.135666
Spine -8.633499 3.658285 3.977076
Head 4.659839 -7.908137 2.235813
LeftShoulder -7.886692 -25.302536 11.450126
LeftArm 5.088100 5.559044 -11.532108
LeftForeArm 3.968792 -0.000000 -0.515813
LeftHand -3.923043 -0.000000 -4.374434
LeftHandThumb1 -26.253704 0.000000 33.147579
RightShoulder -9.859038 -15.059350 -3.615870
RightArm 15.825385 25.184278 20.720001
RightForeArm -29.050319 -0.000000 5.763728
RightHand -4.189075 -0.000000 7.654998
RightHandThumb1 -24.326973 -0.000000 -32.862282
LeftUpLeg 6.535724 13.082188 2.732177
LeftLeg -4.411917 -0.000000 0.000000
LeftFoot -22.348617 36.729021 -11.492534
LeftToeBase 23.463555 -0.000000 -0.000000
RightUpLeg -1.460985 -11.487583 0.286650
RightLeg 12.487174 -0.000000 -0.000000
RightFoot -19.592484 -27.416125 17.486580
RightToeBase 12.248373 -0.000000 -0.000000
1510
root 20.173642 35.751033 -23.830908 107.057381 95.297997 106.041275
Spine -9.196320 3.677432 3.615476
Head 4.834893 -7.704713 2.477559
LeftShoulder -8.120038 -25.682198 12.182787
LeftArm 5.090693 5.124773 -10.506859
LeftForeArm 4.434554 -0.000000 -0.574919
LeftHand -3.971510 -0.000000 -4.159172
LeftHandThumb1 -26.253704 0.000000 33.147579
RightShoulder -10.042034 -14.836879 -3.863545
RightArm 15.500233 25.997047 20.173311
RightForeArm -29.393858 0.000000 5.722919
RightHand -4.337932 -0.000000 7.470465
RightHandThumb1 -24.326973 -0.000000 -32.862282
LeftUpLeg 6.385235 13.184237 2.666609
LeftLeg -4.637332 -0.000000 0.000000
LeftFoot -22.297097 36.845185 -11.629398
LeftToeBase 23.445851 -0.000000 -0.000000
RightUpLeg -1.062487 -10.878726 0.150193
RightLeg 11.233059 -0.000000 -0.000000
RightFoot -19.404299 -26.651340 17.954996
RightToeBase 13.098341 -0.000000 -0.000000
1511
root 20.197738 35.740441 -23.746587 109.965127 95.241656 108.637156
Spine -9.706208 3.640421 3.234397
Head 4.963190 -7.566604 2.690489
LeftShoulder -8.374386 -26.061455 12.914941
LeftArm 5.072027 4.627774 -9.513773
LeftForeArm 4.893411 -0.000000 -0.575008
LeftHand -4.125904 0.000000 -3.859595
LeftHandThumb1 -26.253704 0.000000 33.147579
RightShoulder -10.189403 -14.487610 -4.178230
RightArm 15.180262 26.733607 19.730814
RightForeArm -29.845313 -0.000000 5.627001
RightHand -4.436692 -0.000000 7.257737
RightHandThumb1 -24.326973 -0.000000 -32.862282
LeftUpLeg 6.238538 13.251601 2.603958
LeftLeg -4.836016 -0.000000 0.000000
LeftFoot -22.242490 36.924517 -11.750693
LeftToeBase 23.467958 -0.000000 -0.000000
RightUpLeg -0.661243 -10.377974 0.041379
RightLeg 9.932446 -0.000000 -0.000000
RightFoot -19.231552 -26.249530 17.855196
RightToeBase 15.357714 -0.000000 -0.000000
1512
root 20.224453 35.727704 -23.660841 112.367198 95.141761 110.765103
Spine -10.178264 3.568013 2.803400
Head 5.085352 -7.372129 2.924377
LeftShoulder -8.608840 -26.338684 13.624198
LeftArm 5.143715 4.046726 -8.567021
LeftForeArm 5.341392 -0.000000 -0.624580
LeftHand -4.285419 0.000000 -3.483694
LeftHandThumb1 -26.253704 0.000000 33.147579
RightShoulder -10.357951 -14.261462 -4.442570
RightArm 14.847497 27.307799 19.208926
RightForeArm -30.067731 -0.000000 5.596355
RightHand -4.607215 -0.000000 7.315614
RightHandThumb1 -24.326973 -0.000000 -32.862282
LeftUpLeg 6.148531 13.137570 2.506277
LeftLeg -5.078927 -0.000000 0.000000
LeftFoot -22.165881 37.132998 -11.876504
LeftToeBase 23.367470 -0.000000 -0.000000
RightUpLeg -0.215869 -10.134709 -0.114634
RightLeg 8.566295 -0.000000 -0.000000
RightFoot -18.948108 -25.917645 17.889034
RightToeBase 17.286554 -0.000000 -0.000000
1513
root 20.246718 35.711992 -23.572233 114.724154 95.020318 112.845798
Spine -10.638531 3.482717 2.340469
Head 5.211128 -7.178848 3.157957
LeftShoulder -8.805495 -26.764153 14.315490
LeftArm 5.188095 3.678510 -7.628088
LeftForeArm 5.701537 -0.000000 -0.677885
LeftHand -4.476084 0.000000 -3.157820
LeftHandThumb1 -26.253704 0.000000 33.147579
RightShoulder -10.534831 -13.993871 -4.742413
RightArm 14.578345 27.837676 18.794021
RightForeArm -30.535020 -0.000000 5.482667
RightHand -4.748157 -0.000000 7.244745
RightHandThumb1 -24.326973 -0.000000 -32.862282
LeftUpLeg 6.037058 12.958433 2.386230
LeftLeg -5.304102 -0.000000 0.000000
LeftFoot -22.117196 37.376248 -12.010555
LeftToeBase 23.279158 -0.000000 -0.000000
RightUpLeg 0.188051 -9.928892 -0.279738
RightLeg 7.279673 -0.000000 -0.000000
RightFoot -18.764941 -25.755038 17.965012
RightToeBase 18.569276 -0.000000 -0.000000
1514
root 20.268479 35.693935 -23.483515 117.073622 94.871388 114.944324
Spine -11.058331 3.392002 1.856648
Head 5.323334 -7.052986 3.346162
LeftShoulder -8.976541 -27.218027 14.993745
LeftArm 5.209263 3.310798 -6.747341
LeftForeArm 6.002517 -0.000000 -0.706258
LeftHand -4.614376 0.000000 -2.774330
LeftHandThumb1 -26.253704 0.000000 33.147579
RightShoulder -10.677933 -13.753227 -5.059656
RightArm 14.230743 28.272008 18.364589
RightForeArm -30.929330 -0.000000 5.434750
RightHand -4.927333 -0.000000 7.313303
RightHandThumb1 -24.326973 -0.000000 -32.862282
LeftUpLeg 5.844081 13.110200 2.264796
LeftLeg -5.330684 -0.000000 0.000000
LeftFoot -22.087987 37.324488 -12.004352
LeftToeBase 23.388449 -0.000000 -0.000000
RightUpLeg 0.579076 -9.813798 -0.451088
RightLeg 6.094219 -0.000000 -0.000000
RightFoot -18.633105 -25.584211 17.838511
RightToeBase 19.445602 -0.000000 -0.000000
1515
root 20.286411 35.675052 -23.389921 119.412077 94.718223 117.028325
Spine -11.461677 3.299807 1.353309
Head 5.409421 -6.929000 3.528774
LeftShoulder -9.144439 -27.608237 15.636262
LeftArm 5.269387 2.897639 -5.891163
LeftForeArm 6.441134 -0.000000 -0.696578
LeftHand -4.822456 -0.000000 -2.303929
LeftHandThumb1 -26.253704 0.000000 33.147579
RightShoulder -10.848510 -13.561379 -5.324909
RightArm 13.918561 28.614360 17.906662
RightForeArm -31.315801 -0.000000 5.354791
RightHand -4.963687 -0.000000 7.192330
RightHandThumb1 -24.326973 -0.000000 -32.862282
LeftUpLeg 5.674442 13.044873 2.135170
LeftLeg -5.422164 -0.000000 0.000000
LeftFoot -22.054871 37.433558 -12.041361
LeftToeBase 23.405304 -0.000000 -0.000000
RightUpLeg 0.942542 -9.729665 -0.589526
RightLeg 4.964150 -0.000000 -0.000000
RightFoot -18.542850 -25.313254 17.843557
RightToeBase 19.693530 -0.000000 -0.000000
1516
root 20.307238 35.654843 -23.298302 121.681803 94.544867 119.111316
Spine -11.773063 3.152542 0.862308
Head 5.480828 -6.776058 3.655637
LeftShoulder -9.367890 -28.134154 16.273145
LeftArm 5.342627 2.665637 -5.063714
LeftForeArm 6.780848 0.000000 -0.686900
LeftHand -5.055683 -0.000000 -1.936522
LeftHandThumb1 -26.253704 0.000000 33.147579
RightShoulder -10.921614 -13.295296 -5.637833
RightArm 13.531722 28.915337 17.451810
RightForeArm -31.735415 -0.000000 5.263876
RightHand -5.158068 -0.000000 7.178013
RightHandThumb1 -24.326973 -0.000000 -32.862282
LeftUpLeg 5.572110 12.958934 2.004891
LeftLeg -5.502320 -0.000000 0.000000
LeftFoot -22.046650 37.525991 -12.102516
LeftToeBase 23.444364 -0.000000 -0.000000
RightUpLeg 1.275098 -9.901399 -0.742023
RightLeg 4.065371 -0.000000 -0.000000
RightFoot -18.588132 -24.930918 17.842801
RightToeBase 20.245173 -0.000000 -0.000000
1517
root 20.325025 35.633535 -23.206198 124.082585 94.379166 121.332886
Spine -12.061319 3.046620 0.391822
Head 5.543770 -6.644510 3.702558
LeftShoulder -9.529779 -28.548527 16.805158
LeftArm 5.397658 2.255933 -4.258064
LeftForeArm 7.169772 -0.000000 -0.593223
LeftHand -5.331121 -0.000000 -1.612728
LeftHandThumb1 -26.253704 0.000000 33.147579
RightShoulder -11.049225 -13.109476 -5.905249
RightArm 13.188572 29.165600 16.960352
RightForeArm -32.093948 -0.000000 5.182900
RightHand -5.340349 -0.000000 7.153843
RightHandThumb1 -24.326973 -0.000000 -32.862282
LeftUpLeg 5.464548 12.917177 1.884360
LeftLeg -5.562335 -0.000000 0.000000
LeftFoot -22.048824 37.554067 -12.134882
LeftToeBase 23.575205 -0.000000 -0.000000
RightUpLeg 1.555574 -10.198041 -0.871481
RightLeg 3.274656 -0.000000 -0.000000
RightFoot -18.756028 -24.580167 17.862884
RightToeBase 20.901916 -0.000000 -0.000000
1518
root 20.341768 35.613504 -23.111684 126.716434 94.244479 123.793530
Spine -12.341514 2.979217 -0.052473
Head 5.615305 -6.559882 3.721213
LeftShoulder -9.724830 -28.943399 17.287758
LeftArm 5.560028 1.995109 -3.492251
LeftForeArm 7.447566 -0.000000 -0.543269
LeftHand -5.546550 -0.000000 -1.304230
LeftHandThumb1 -26.253704 0.000000 33.147579
RightShoulder -11.175325 -12.929249 -6.188158
RightArm 12.818662 29.439825 16.505870
RightForeArm -32.446263 -0.000000 5.143202
RightHand -5.461607 0.000000 7.140429
RightHandThumb1 -24.326973 -0.000000 -32.862282
LeftUpLeg 5.343230 12.942247 1.793753
LeftLeg -5.578593 -0.000000 0.000000
LeftFoot -22.006613 37.539777 -12.118729
LeftToeBase 23.590482 -0.000000 -0.000000
RightUpLeg 1.789297 -10.663813 -0.971621
RightLeg 2.552638 -0.000000 -0.000000
RightFoot -18.893258 -24.150446 18.015093
RightToeBase 21.114829 -0.000000 -0.000000
1519
root 20.356873 35.595152 -23.020606 129.648310 94.138009 126.562764
Spine -12.594683 2.953810 -0.467386
Head 5.669503 -6.502444 3.701310
LeftShoulder -9.926389 -29.251854 17.721737
LeftArm 5.742500 1.622778 -2.799775
LeftForeArm 7.807910 -0.000000 -0.473419
LeftHand -5.735807 0.000000 -0.955024
LeftHandThumb1 -26.253704 0.000000 33.147579
RightShoulder -11.277900 -12.681186 -6.464144
RightArm 12.369133 29.755095 16.040484
RightForeArm -32.877123 -0.000000 5.168979
RightHand -5.632672 -0.000000 7.088549
RightHandThumb1 -24.326973 -0.000000 -32.862282
LeftUpLeg 5.223509 13.082457 1.716317
LeftLeg -5.576171 -0.000000 0.000000
LeftFoot -21.980317 37.401912 -12.097547
LeftToeBase 23.698295 -0.000000 -0.000000
RightUpLeg 2.004654 -11.189780 -1.063359
RightLeg 1.850007 -0.000000 -0.000000
RightFoot -18.948280 -23.681473 17.979546
RightToeBase 21.486968 -0.000000 -0.000000
1520
root 20.374084 35.578998 -22.926255 132.536210 94.053019 129.316358
Spine -12.816249 2.963200 -0.864324
Head 5.719497 -6.471064 3.635395
LeftShoulder -10.129992 -29.628492 18.161224
LeftArm 5.927151 1.392523 -2.202837
LeftForeArm 8.169069 -0.000000 -0.413818
LeftHand -5.856587 -0.000000 -0.605066
LeftHandThumb1 -26.253704 0.000000 33.147579
RightShoulder -11.431048 -12.418181 -6.698683
RightArm 11.959692 30.063504 15.570214
RightForeArm -33.213322 -0.000000 5.181473
RightHand -5.903559 -0.000000 6.955542
RightHandThumb1 -24.326973 -0.000000 -32.862282
LeftUpLeg 5.129826 13.199924 1.667136
LeftLeg -5.554808 -0.000000 0.000000
LeftFoot -21.957965 37.265434 -12.115623
LeftToeBase 23.763543 -0.000000 -0.000000
RightUpLeg 2.252343 -11.723713 -1.128722
RightLeg 1.143719 -0.000000 -0.000000
RightFoot -18.977564 -23.213273 18.009479
RightToeBase 21.672870 -0.000000 -0.000000
1521
root 20.387480 35.564216 -22.834016 135.918971 94.017865 132.523833
Spine -13.085260 3.015940 -1.225128
Head 5.782227 -6.436679 3.520135
LeftShoulder -10.330959 -29.903615 18.549009
LeftArm 6.107453 1.122967 -1.657886
LeftForeArm 8.625537 -0.000000 -0.357072
LeftHand -6.074997 -0.000000 -0.352880
LeftHandThumb1 -26.253704 0.000000 33.147579
RightShoulder -11.614645 -12.286618 -6.915939
RightArm 11.640962 30.531479 15.173695
RightForeArm -33.666660 0.000000 5.213735
RightHand -6.077243 0.000000 6.846509
RightHandThumb1 -24.326973 -0.000000 -32.862282
LeftUpLeg 4.961035 13.407785 1.621224
LeftLeg -5.477501 -0.000000 0.000000
LeftFoot -21.928812 37.089187 -12.123923
LeftToeBase 23.758456 -0.000000 -0.000000
RightUpLeg 2.450236 -12.219766 -1.170541
RightLeg 0.428948 -0.000000 -0.000000
RightFoot -18.949310 -22.735634 17.893001
RightToeBase 22.044646 -0.000000 -0.000000
